<svg width="64" height="64" viewBox="0 0 64 64" fill="none" xmlns="http://www.w3.org/2000/svg">
<path d="M31.9883 6C31.2583 6 30.5284 6.17906 29.8984 6.53906L10.0781 17.9805C8.79813 18.7205 8 20.1216 8 21.6016V42.3594C8 43.8594 8.79813 45.2405 10.0781 45.9805L15.2812 48.9805C17.8013 50.2205 18.6998 50.2188 19.8398 50.2188C23.5798 50.2188 25.7188 47.9591 25.7188 44.0391V22.6211C25.7188 22.3011 25.4606 22.0391 25.1406 22.0391H22.6406C22.3006 22.0391 22.0586 22.3011 22.0586 22.6211V44.0195C22.0586 45.7795 20.2408 47.4991 17.3008 46.0391L11.8594 42.8984C11.6594 42.7984 11.5391 42.5794 11.5391 42.3594V21.6211C11.5391 21.3811 11.6594 21.1786 11.8594 21.0586L31.6797 9.62109C31.8597 9.50109 32.1008 9.50109 32.3008 9.62109L52.1211 21.0586C52.3211 21.1786 52.4414 21.3816 52.4414 21.6016V42.3594C52.4414 42.5794 52.3206 42.7984 52.1406 42.8984L32.3008 54.3594C32.1208 54.4594 31.8597 54.4594 31.6797 54.3594L26.5781 51.3398C26.4381 51.2398 26.2416 51.2208 26.1016 51.3008C24.6816 52.1008 24.4216 52.2002 23.1016 52.6602C22.7816 52.7602 22.2812 52.9595 23.2812 53.5195L29.8984 57.4414C30.5384 57.8014 31.2605 58 31.9805 58C32.7205 58 33.4381 57.8014 34.0781 57.4414L53.9219 45.9805C55.2019 45.2405 56 43.8594 56 42.3594V21.6211C56 20.1211 55.2019 18.74 53.9219 18L34.0781 6.53906C33.4481 6.17906 32.7183 6 31.9883 6ZM37.3203 22.0117C31.6603 22.0117 28.2812 24.4102 28.2812 28.4102C28.2812 32.7502 31.6381 33.9483 37.0781 34.4883C43.5781 35.1283 44.0781 36.0911 44.0781 37.3711C44.0781 39.5711 42.3011 40.5117 38.1211 40.5117C32.8611 40.5117 31.7003 39.1898 31.3203 36.5898C31.2803 36.3098 31.0417 36.1094 30.7617 36.1094H28.1797C27.8597 36.1094 27.6211 36.3719 27.6211 36.6719C27.6211 40.0119 29.4411 43.9883 38.1211 43.9883C44.4011 43.9883 48 41.5114 48 37.1914C48 32.9114 45.0995 31.7692 39.0195 30.9492C32.8395 30.1492 32.2188 29.7291 32.2188 28.2891C32.2188 27.0891 32.7603 25.5117 37.3203 25.5117C41.3803 25.5117 42.8995 26.3889 43.5195 29.1289C43.5795 29.3889 43.7981 29.5898 44.0781 29.5898H46.6602C46.8202 29.5898 46.9581 29.5106 47.0781 29.3906C47.1781 29.2906 47.2388 29.1292 47.2188 28.9492C46.8187 24.2292 43.6803 22.0117 37.3203 22.0117Z" fill="white"/>
</svg>
