<svg width="64" height="64" viewBox="0 0 64 64" fill="none" xmlns="http://www.w3.org/2000/svg">
<path d="M22.8086 6.71873C21.118 6.60662 19.4564 6.9091 18 7.74998C16.0581 8.87114 14.7649 10.7849 14.0703 12.9883C13.3757 15.1916 13.2152 17.7309 13.4688 20.5039C13.4944 20.7848 13.5438 21.0775 13.5781 21.3633C13.313 21.4766 13.0339 21.5808 12.7773 21.6992C10.2491 22.8661 8.13119 24.2733 6.57031 25.9765C5.00944 27.6798 4 29.7576 4 32C4 34.2423 5.00944 36.3202 6.57031 38.0234C8.13119 39.7266 10.2491 41.1339 12.7773 42.3008C13.0339 42.4192 13.313 42.5233 13.5781 42.6367C13.5438 42.9224 13.4944 43.2152 13.4688 43.4961C13.2152 46.2691 13.3757 48.8083 14.0703 51.0117C14.7649 53.2151 16.0581 55.1288 18 56.25C19.9419 57.3711 22.2445 57.5353 24.5 57.0351C26.7555 56.535 29.0339 55.4029 31.3086 53.7969C31.5389 53.6343 31.7698 53.4459 32 53.2734C32.2302 53.4459 32.4611 53.6343 32.6914 53.7969C34.9661 55.4029 37.2445 56.535 39.5 57.0351C41.7555 57.5353 44.0581 57.3711 46 56.25C47.9419 55.1288 49.2351 53.2151 49.9297 51.0117C50.6243 48.8083 50.7848 46.2691 50.5312 43.4961C50.5056 43.2152 50.4562 42.9224 50.4219 42.6367C50.687 42.5233 50.9661 42.4192 51.2227 42.3008C53.7509 41.1339 55.8688 39.7266 57.4297 38.0234C58.9906 36.3202 60 34.2423 60 32C60 29.7576 58.9906 27.6798 57.4297 25.9765C55.8688 24.2733 53.7509 22.8661 51.2227 21.6992C50.9661 21.5808 50.687 21.4766 50.4219 21.3633C50.4562 21.0775 50.5056 20.7848 50.5312 20.5039C50.7848 17.7309 50.6243 15.1916 49.9297 12.9883C49.2351 10.7849 47.9419 8.87114 46 7.74998C44.0581 6.62881 41.7555 6.46468 39.5 6.96482C37.2445 7.46497 34.9661 8.59701 32.6914 10.2031C32.4611 10.3657 32.2302 10.5541 32 10.7265C31.7698 10.5541 31.5389 10.3657 31.3086 10.2031C29.0339 8.59701 26.7555 7.46497 24.5 6.96482C23.9361 6.83979 23.3721 6.7561 22.8086 6.71873ZM22.5469 10.7031C22.8877 10.7288 23.25 10.7853 23.6367 10.8711C25.1481 11.2062 26.9581 12.0545 28.8672 13.3828C27.2772 14.8911 25.7124 16.6071 24.2188 18.5273C21.8117 18.8607 19.5444 19.3544 17.4453 19.9765C17.2498 17.66 17.4175 15.6674 17.8828 14.1914C18.3592 12.6803 19.0722 11.7505 20 11.2148C20.6959 10.8131 21.5244 10.6261 22.5469 10.7031ZM41.4531 10.7031C42.4756 10.6261 43.3041 10.8131 44 11.2148C44.9278 11.7505 45.6408 12.6803 46.1172 14.1914C46.5825 15.6674 46.7502 17.66 46.5547 19.9765C44.4556 19.3544 42.1883 18.8607 39.7812 18.5273C38.2876 16.6071 36.7228 14.8911 35.1328 13.3828C37.0419 12.0545 38.8519 11.2062 40.3633 10.8711C40.75 10.7853 41.1123 10.7288 41.4531 10.7031ZM32 15.9179C32.703 16.5679 33.4047 17.2907 34.1055 18.0469C33.408 18.0222 32.711 18 32 18C31.289 18 30.592 18.0222 29.8945 18.0469C30.5953 17.2907 31.297 16.5679 32 15.9179ZM32 22C33.9291 22 35.7988 22.1134 37.5977 22.3047C38.6627 23.7669 39.6956 25.3294 40.6602 27C41.6248 28.6707 42.4615 30.3464 43.1953 32C42.4615 33.6536 41.6248 35.3292 40.6602 37C39.6956 38.6706 38.6627 40.233 37.5977 41.6953C35.7988 41.8865 33.9291 42 32 42C30.0709 42 28.2012 41.8865 26.4023 41.6953C25.3373 40.233 24.3044 38.6706 23.3398 37C22.3752 35.3292 21.5385 33.6536 20.8047 32C21.5385 30.3464 22.3752 28.6707 23.3398 27C24.3044 25.3294 25.3373 23.7669 26.4023 22.3047C28.2012 22.1134 30.0709 22 32 22ZM20.9688 23.1992C20.5987 23.7908 20.2305 24.3843 19.875 25C19.5195 25.6157 19.1906 26.2313 18.8633 26.8476C18.5592 25.8641 18.2854 24.8934 18.0742 23.9609C18.9882 23.6772 19.9639 23.4279 20.9688 23.1992ZM43.0312 23.1992C44.0361 23.4279 45.0118 23.6772 45.9258 23.9609C45.7146 24.8934 45.4408 25.8641 45.1367 26.8476C44.8094 26.2313 44.4805 25.6157 44.125 25C43.7695 24.3843 43.4013 23.7908 43.0312 23.1992ZM14.3086 25.4062C14.8197 27.537 15.5255 29.7468 16.4414 32C15.5255 34.2532 14.8197 36.463 14.3086 38.5937C12.2056 37.605 10.5648 36.4609 9.51953 35.3203C8.44906 34.1522 8 33.0714 8 32C8 30.9286 8.44906 29.8478 9.51953 28.6797C10.5648 27.5391 12.2056 26.395 14.3086 25.4062ZM49.6914 25.4062C51.7944 26.395 53.4352 27.5391 54.4805 28.6797C55.5509 29.8478 56 30.9286 56 32C56 33.0714 55.5509 34.1522 54.4805 35.3203C53.4352 36.4609 51.7944 37.605 49.6914 38.5937C49.1803 36.463 48.4745 34.2532 47.5586 32C48.4745 29.7468 49.1803 27.537 49.6914 25.4062ZM32 26C28.71 26 26 28.71 26 32C26 35.29 28.71 38 32 38C35.29 38 38 35.29 38 32C38 28.71 35.29 26 32 26ZM32 30C33.1283 30 34 30.8717 34 32C34 33.1282 33.1283 34 32 34C30.8717 34 30 33.1282 30 32C30 30.8717 30.8717 30 32 30ZM18.8633 37.1523C19.1906 37.7686 19.5195 38.3843 19.875 39C20.2305 39.6157 20.5987 40.2091 20.9688 40.8008C19.9639 40.572 18.9882 40.3228 18.0742 40.039C18.2854 39.1066 18.5592 38.1358 18.8633 37.1523ZM45.1367 37.1523C45.4408 38.1358 45.7146 39.1066 45.9258 40.039C45.0118 40.3228 44.0361 40.572 43.0312 40.8008C43.4013 40.2091 43.7695 39.6157 44.125 39C44.4805 38.3843 44.8094 37.7686 45.1367 37.1523ZM17.4453 44.0234C19.5444 44.6456 21.8117 45.1392 24.2188 45.4726C25.7124 47.3929 27.2772 49.1088 28.8672 50.6172C26.9581 51.9454 25.1481 52.7937 23.6367 53.1289C22.0899 53.4719 20.9278 53.3208 20 52.7851C19.0722 52.2494 18.3592 51.3197 17.8828 49.8086C17.4175 48.3326 17.2498 46.3399 17.4453 44.0234ZM46.5547 44.0234C46.7502 46.3399 46.5825 48.3326 46.1172 49.8086C45.6408 51.3197 44.9278 52.2494 44 52.7851C43.0722 53.3208 41.9101 53.4719 40.3633 53.1289C38.8519 52.7937 37.0419 51.9454 35.1328 50.6172C36.7228 49.1088 38.2876 47.3929 39.7812 45.4726C42.1883 45.1392 44.4556 44.6456 46.5547 44.0234ZM29.8945 45.9531C30.592 45.9778 31.289 46 32 46C32.711 46 33.408 45.9778 34.1055 45.9531C33.4047 46.7093 32.703 47.4321 32 48.082C31.297 47.4321 30.5953 46.7093 29.8945 45.9531Z" fill="white"/>
</svg>
